<svg xmlns="http://www.w3.org/2000/svg" width="23" height="24" viewBox="0 0 23 24" fill="none">
  <path d="M12.458 5.29171C12.458 4.76243 12.0289 4.33337 11.4997 4.33337C10.9704 4.33337 10.5413 4.76243 10.5413 5.29171V11.0417H4.79134C4.26207 11.0417 3.83301 11.4708 3.83301 12C3.83301 12.5293 4.26207 12.9584 4.79134 12.9584H10.5413V18.7084C10.5413 19.2376 10.9704 19.6667 11.4997 19.6667C12.0289 19.6667 12.458 19.2376 12.458 18.7084V12.9584H18.208C18.7373 12.9584 19.1663 12.5293 19.1663 12C19.1663 11.4708 18.7373 11.0417 18.208 11.0417H12.458V5.29171Z" fill="#046FEB"/>
</svg>